<svg xmlns="http://www.w3.org/2000/svg" width="26" height="26" fill="none" viewBox="0 0 26 26">
    <path fill="#fff" d="M18.396.05H6.828C3.063.05 0 3.111 0 6.876v11.568c0 3.765 3.063 6.828 6.828 6.828h11.568c3.765 0 6.827-3.063 6.827-6.828V6.877c0-3.765-3.062-6.828-6.827-6.828zm5.349 18.395c0 2.95-2.4 5.349-5.35 5.349H6.829c-2.95 0-5.35-2.4-5.35-5.349V6.877c0-2.95 2.4-5.349 5.35-5.349h11.568c2.95 0 5.349 2.4 5.349 5.349v11.568z"/>
    <path fill="#fff" d="M12.612 5.764c-3.803 0-6.897 3.094-6.897 6.897 0 3.803 3.094 6.897 6.897 6.897 3.803 0 6.897-3.094 6.897-6.897 0-3.803-3.094-6.897-6.897-6.897zm0 12.315c-2.988 0-5.418-2.43-5.418-5.418 0-2.987 2.43-5.418 5.418-5.418 2.987 0 5.418 2.43 5.418 5.418s-2.43 5.418-5.418 5.418zM19.674 3.315c-1.124 0-2.038.914-2.038 2.038 0 1.124.914 2.038 2.038 2.038 1.123 0 2.038-.914 2.038-2.038 0-1.124-.915-2.038-2.038-2.038zm0 2.597c-.309 0-.56-.251-.56-.56 0-.308.251-.559.56-.559.308 0 .559.251.559.56 0 .308-.251.559-.56.559z"/>
</svg>
