<svg xmlns="http://www.w3.org/2000/svg" width="25" height="19" fill="none" viewBox="0 0 25 19">
    <path fill="#fff" d="M24.794.33c-.245-.297-.651-.407-1.012-.275L.849 8.3c-.458.165-.78.567-.84 1.048-.058.479.154.943.552 1.21l3.278 2.226c.317.216.726.24 1.066.06l7.11-3.73-5.542 4.117c-.26.193-.415.502-.415.825v3.813c0 .393.217.753.566.94.35.187.772.169 1.104-.05l2.49-1.642 2.45 1.66c.214.147.47.224.727.224.087 0 .175-.009.261-.027.344-.071.648-.282.835-.58L24.866 1.375c.202-.328.173-.747-.072-1.045zM13.34 17.469l-2.536-1.72c-.176-.12-.38-.18-.583-.18-.198 0-.397.057-.572.172l-2.126 1.403V14.27L17.31 7c.437-.324.547-.915.256-1.374-.292-.459-.875-.614-1.358-.36L4.451 11.434 1.678 9.55 22.796 1.96 13.34 17.469z"/>
</svg>
