<svg xmlns="http://www.w3.org/2000/svg" width="26" height="26" fill="none" viewBox="0 0 26 26">
    <path fill="#fff" d="M21.64 3.632C19.33 1.322 16.26.049 12.993.049h-.002c-1.616 0-3.19.313-4.68.93-1.49.618-2.825 1.51-3.968 2.653C2.032 5.942.76 9.014.76 12.282c0 1.948.47 3.884 1.36 5.61L.066 23.764c-.145.414-.043.864.268 1.175.217.217.503.333.797.333.126 0 .254-.021.378-.065l5.874-2.056c1.725.891 3.661 1.361 5.61 1.361 3.267 0 6.338-1.272 8.649-3.583 2.31-2.31 3.583-5.381 3.583-8.649 0-3.267-1.273-6.339-3.583-8.65zm-1.045 16.252c-2.031 2.031-4.731 3.15-7.603 3.15-1.757 0-3.503-.435-5.048-1.257-.28-.15-.611-.175-.909-.07L1.7 23.573l1.868-5.337c.104-.297.078-.628-.07-.908-.823-1.545-1.258-3.29-1.258-5.048 0-2.872 1.119-5.572 3.15-7.603 2.03-2.03 4.73-3.15 7.602-3.15 2.873 0 5.573 1.119 7.604 3.15 2.03 2.03 3.15 4.731 3.15 7.603s-1.12 5.573-3.15 7.603z"/>
    <path fill="#fff" d="M17.537 13.374c-.562-.563-1.478-.563-2.04 0l-.616.615c-1.528-.833-2.765-2.07-3.598-3.597l.616-.616c.563-.562.563-1.478 0-2.04l-1.659-1.66c-.562-.562-1.478-.562-2.04 0L6.872 7.405c-.76.76-.798 2.066-.107 3.678.6 1.4 1.698 2.94 3.092 4.333 1.394 1.394 2.932 2.492 4.332 3.092.766.328 1.463.492 2.065.492.666 0 1.215-.2 1.614-.599l1.327-1.327c.273-.272.423-.635.423-1.02 0-.386-.15-.748-.423-1.02l-1.659-1.66zm-.714 3.98c-.217.217-.884.293-2.05-.207-1.231-.527-2.605-1.514-3.87-2.778-1.263-1.264-2.25-2.638-2.777-3.87-.5-1.165-.424-1.832-.207-2.05l1.301-1.3 1.607 1.607-.77.77c-.348.349-.432.877-.21 1.315 1.014 1.986 2.599 3.571 4.585 4.584.438.223.966.14 1.315-.21l.77-.77 1.607 1.608-1.3 1.301z"/>
</svg>
